<?xml version="1.0" encoding="UTF-8" standalone="no"?>
<svg
   xmlns:dc="http://purl.org/dc/elements/1.1/"
   xmlns:cc="http://creativecommons.org/ns#"
   xmlns:rdf="http://www.w3.org/1999/02/22-rdf-syntax-ns#"
   xmlns:svg="http://www.w3.org/2000/svg"
   xmlns="http://www.w3.org/2000/svg"
   xmlns:sodipodi="http://sodipodi.sourceforge.net/DTD/sodipodi-0.dtd"
   xmlns:inkscape="http://www.inkscape.org/namespaces/inkscape"
   width="1440"
   height="1323"
   viewBox="0 0 1440 1323"
   fill="none"
   version="1.1"
   id="svg18"
   sodipodi:docname="projects-back.svg"
   inkscape:version="0.92.3 (2405546, 2018-03-11)">
  <metadata
     id="metadata22">
    <rdf:RDF>
      <cc:Work
         rdf:about="">
        <dc:format>image/svg+xml</dc:format>
        <dc:type
           rdf:resource="http://purl.org/dc/dcmitype/StillImage" />
      </cc:Work>
    </rdf:RDF>
  </metadata>
  <sodipodi:namedview
     pagecolor="#ffffff"
     bordercolor="#666666"
     borderopacity="1"
     objecttolerance="10"
     gridtolerance="10"
     guidetolerance="10"
     inkscape:pageopacity="0"
     inkscape:pageshadow="2"
     inkscape:window-width="1366"
     inkscape:window-height="715"
     id="namedview20"
     showgrid="false"
     inkscape:zoom="0.35676493"
     inkscape:cx="728.5232"
     inkscape:cy="619.65157"
     inkscape:window-x="0"
     inkscape:window-y="0"
     inkscape:window-maximized="1"
     inkscape:current-layer="svg18" />
  <path
     style="clip-rule:evenodd;fill:#ffa046;fill-rule:evenodd;fill-opacity:1"
     d="M 0 0 L 0 1042.5293 L 0 1094.5098 L 60 1114.6309 C 120 1134.7409 240.682 1168.6509 360 1188.3809 C 498.856 1211.3409 600 1188.3792 720 1215.1992 C 840 1242.0192 932.499 1316.2407 1080 1322.4707 C 1198.69 1327.4907 1320 1295.6491 1380 1275.5391 L 1440 1255.4199 L 1440 1042.5293 L 1440 160.91211 L 1380 181.02539 C 1320 201.1394 1198.69 232.97398 1080 227.95898 C 932.49901 221.72698 840 147.50258 720 120.68359 C 600 93.865093 480 107.27474 360 93.865234 C 240 80.455834 120 40.227381 60 20.113281 L 0 0 z "
     id="path2" />
  <defs
     id="defs16">
    <linearGradient
       id="paint0_linear"
       x1="0"
       y1="0"
       x2="608.19183"
       y2="435.52597"
       gradientUnits="userSpaceOnUse">
      <stop
         stop-color="#FFA046"
         id="stop6" />
      <stop
         offset="1"
         stop-color="#FC914A"
         id="stop8" />
    </linearGradient>
    <linearGradient
       id="paint1_linear"
       x1="0"
       y1="0"
       x2="1334.16"
       y2="1422.17"
       gradientUnits="userSpaceOnUse"
       gradientTransform="translate(0,-3.1e-5)">
      <stop
         stop-color="#FFA046"
         id="stop11" />
      <stop
         offset="1"
         stop-color="#FC914A"
         id="stop13" />
    </linearGradient>
  </defs>
</svg>
